<?xml version="1.0" encoding="utf-8"?>
<!-- Generator: Adobe Illustrator 24.0.1, SVG Export Plug-In . SVG Version: 6.00 Build 0)  -->
<svg version="1.1" id="Layer_1" xmlns="http://www.w3.org/2000/svg" xmlns:xlink="http://www.w3.org/1999/xlink" x="0px" y="0px"
	 viewBox="0 0 60 75" style="enable-background:new 0 0 60 75;" xml:space="preserve">
<style type="text/css">
	.st0{fill:#0C8040;stroke:#231F20;stroke-width:0.5;stroke-miterlimit:10;}
	.st1{fill:#E71E25;stroke:#231F20;stroke-width:0.5;stroke-miterlimit:10;}
</style>
<g>
	<path class="st0" d="M40.6,7.5c3.6,0,6.5,2.7,6.9,6.1c-1.5,0.4-2.6,1.4-3.1,2.8c1-0.4,2-0.7,3.1-0.7l0.3,0c1.8,0,3.7,0.6,5.2,1.9
		c-0.1-2-1.5-3.7-3.5-4.1c-0.4-4.5-4.3-8.1-9-8.1c-0.6,0-1,0.4-1,1S40.1,7.5,40.6,7.5z"/>
	<path class="st1" d="M53.8,23c-0.5-3.7-3.6-5.3-6.2-5.2c-1.3,0-2.7,0.5-3.8,1.4c-1.1,0.9-1.9,2.3-2.1,4.2l0,0.4
		c-1.1,11.8-10.4,21.8-22.2,23.6c-4,0.6-7.9,0.4-11.7-0.8c-0.5-0.1-0.9,0.1-1.2,0.5c-0.2,0.4-0.1,0.9,0.2,1.2
		c5.2,4.6,11.8,7.1,18.8,7.1c0.7,0,1.5,0,2.2-0.1c13.8-1,25-12.2,26.1-26C54.1,27.3,54.1,25.1,53.8,23z"/>
</g>
</svg>
