<?xml version="1.0" encoding="utf-8"?>
<!-- Generator: Adobe Illustrator 24.0.1, SVG Export Plug-In . SVG Version: 6.00 Build 0)  -->
<svg version="1.1" id="Layer_1" xmlns="http://www.w3.org/2000/svg" xmlns:xlink="http://www.w3.org/1999/xlink" x="0px" y="0px"
	 viewBox="0 0 144.1 180" style="enable-background:new 0 0 144.1 180;" xml:space="preserve">
<style type="text/css">
	.st0{fill:#FFFFFF;}
</style>
<g id="XMLID_1_">
	<g>
		<path class="st0" d="M129.8,77.3l-58.3,39.2L14.7,78.8L27.8,70c3.4,12.2,15.2,19.3,33,19.3h23c18.4,0,30.4-7.5,33.3-20.5
			L129.8,77.3z"/>
		<path class="st0" d="M114.8,62.3c0,7.2-3,24-31,24h-23c-28,0-31-16.8-31-24c0-15.8,16.6-22.3,29.9-27.5c5.2-2,9.8-3.9,12.6-6
			c2.7,2,7,3.7,12.3,5.8C97.3,39.6,114.8,46.5,114.8,62.3z"/>
		<path d="M83.8,86.3c28,0,31-16.8,31-24c0-15.9-17.5-22.7-30.2-27.7c-5.3-2.1-9.6-3.8-12.3-5.8c-2.8,2.1-7.4,3.9-12.6,6
			C46.4,40,29.8,46.5,29.8,62.3c0,7.2,3,24,31,24H83.8z M85.7,31.8c13.5,5.3,32.1,12.6,32.1,30.5c0,1.1-0.1,2.2-0.2,3.3l17.6,11.7
			l-63.7,42.8L9.3,78.8l17.8-11.9c-0.2-1.5-0.3-3-0.3-4.6c0-17.8,18.4-25,31.8-30.3c5.6-2.2,10.5-4.1,12.6-6.2l1.1-1.1l1.1,1.1
			C75.3,27.8,80.1,29.6,85.7,31.8z M129.8,77.3l-12.8-8.5c-2.9,12.9-14.9,20.5-33.3,20.5h-23c-17.8,0-29.6-7.1-33-19.3l-13.1,8.8
			l56.8,37.7L129.8,77.3z"/>
	</g>
	<g>
	</g>
</g>
<rect x="70.6" y="45" width="3" height="10.3"/>
<rect x="83.3" y="43" transform="matrix(0.9352 -0.354 0.354 0.9352 -11.5528 33.1281)" width="3" height="10.3"/>
<rect x="54.6" y="46.6" transform="matrix(0.3542 -0.9352 0.9352 0.3542 -6.4282 86.9889)" width="10.3" height="3"/>
</svg>
